<?xml version="1.0" standalone="no"?><!DOCTYPE svg PUBLIC "-//W3C//DTD SVG 1.1//EN" "http://www.w3.org/Graphics/SVG/1.1/DTD/svg11.dtd"><svg t="1583467606285" class="icon" viewBox="0 0 1024 1024" version="1.1" xmlns="http://www.w3.org/2000/svg" p-id="877" width="32" height="32" xmlns:xlink="http://www.w3.org/1999/xlink"><defs><style type="text/css"></style></defs><path d="M871.936 249.856a520.362667 520.362667 0 0 0-18.858667-18.005333c-20.565333-18.944-39.765333-36.693333-57.429333-53.162667a24.32 24.32 0 0 1-4.266667-3.413333c-25.770667-23.381333-46.08-41.386667-60.928-53.930667a278.101333 278.101333 0 0 0-21.333333-16.213333 38.314667 38.314667 0 0 0-9.557333-6.058667 23.893333 23.893333 0 0 0-11.093334-2.56 20.394667 20.394667 0 0 0-14.933333 6.4 21.418667 21.418667 0 0 0-6.4 15.786667v197.12h197.12l-22.357333-21.333334v657.322667l22.357333-21.418667h-570.88a62.549333 62.549333 0 0 1-45.824-19.285333 63.658667 63.658667 0 0 1-19.2-46.677333V118.698667l-22.272 22.357333h395.093333a20.394667 20.394667 0 0 0 15.018667-6.4c4.266667-4.266667 6.314667-9.386667 6.314667-15.36 0-6.058667-2.048-11.093333-6.314667-15.36a20.394667 20.394667 0 0 0-15.018667-6.4H183.722667v766.976c0 30.378667 10.666667 56.234667 32.085333 77.653333 21.418667 21.333333 47.274667 32.085333 77.653333 32.085334h593.066667V272.128H688.64l22.357333 22.357333V118.613333a20.394667 20.394667 0 0 1-6.4 14.933334 20.394667 20.394667 0 0 1-14.933333 6.4 16.213333 16.213333 0 0 1-7.68-1.706667l1.706667 1.706667c4.010667 2.901333 10.410667 7.68 18.944 14.592 14.336 12.544 33.962667 30.378667 59.136 53.077333 1.706667 1.109333 3.157333 2.304 4.266666 3.413333 17.749333 16.042667 36.864 33.792 57.429334 53.077334 6.826667 5.717333 13.141333 11.434667 18.858666 17.152 3.413333 2.901333 5.717333 5.12 6.826667 6.826666 4.608 4.010667 9.898667 6.058667 15.872 6.058667a20.48 20.48 0 0 0 15.36-6.826667 21.333333 21.333333 0 0 0 5.973333-15.786666 21.930667 21.930667 0 0 0-6.314666-14.933334 52.053333 52.053333 0 0 1-8.021334-6.826666zM183.722667 491.52H96.426667v372.821333h877.738666V491.52H183.722667z m90.794666 214.186667v92.586666h-42.837333V548.864H326.826667c28.074667 0 50.176 7.253333 66.389333 21.930667 16.213333 14.506667 24.405333 33.792 24.405333 57.770666 0 23.893333-8.021333 42.837333-23.893333 56.576-16.128 13.738667-38.656 20.565333-67.754667 20.565334h-51.456z m0-34.986667h52.309334c15.36 0 27.136-3.584 35.157333-10.752 8.021333-7.082667 11.946667-17.578667 11.946667-31.317333a43.605333 43.605333 0 0 0-11.946667-32.426667c-8.021333-8.106667-19.456-12.032-34.218667-12.032h-53.162666v86.442667z m180.821334 127.658667V548.864H529.066667c22.357333 0 41.984 4.864 59.136 14.677333 17.152 9.728 30.464 23.722667 39.936 41.984 9.386667 18.176 14.165333 38.912 14.165333 61.610667v12.8c0 23.466667-4.693333 44.288-14.165333 62.208-9.386667 17.92-22.869333 31.829333-40.192 41.472-17.493333 9.728-37.632 14.677333-60.501334 14.677333h-72.106666v0.085334z m43.776-214.357334v180.053334h28.16c22.954667 0 40.448-7.168 52.394666-21.418667 11.946667-14.250667 18.261333-34.816 18.858667-61.696v-13.653333c0-26.88-5.802667-47.445333-17.578667-61.696-11.690667-14.336-29.013333-21.418667-51.882666-21.418667H499.2v-0.170667z m329.984 108.970667H728.746667v105.386667h-43.776V548.864h158.634666v35.157333H728.832v73.813334h100.266667v35.157333z" fill="#d81e06" p-id="878"></path></svg>